<?xml version="1.0" encoding="UTF-8"?>
<svg id="Layer_1" data-name="Layer 1" xmlns="http://www.w3.org/2000/svg" version="1.1" viewBox="0 0 472 487">
  <defs>
    <style>
      .cls-1 {
        fill: #000;
        stroke-width: 0px;
      }
    </style>
  </defs>
  <path class="cls-1" d="M453.9,248.3L249.6,46.1c-1-1-1.9-1.8-3-2.4-1.1-.8-2.2-1.3-3.3-1.8-1.3-.5-2.4-.8-3.7-1.1s-2.5-.3-3.8-.3-2.5,0-3.8.3-2.5.6-3.7,1.1c-1.3.5-2.4,1.1-3.3,1.8-1.1.6-2.1,1.6-3,2.4l-78.1,77.2v-15.3c0-1.3-.3-2.5-.8-3.8s-1.3-2.2-2.1-3.2c-1-1-2.1-1.6-3.2-2.2-1.3-.5-2.4-.8-3.8-.8h-38.7c-1.3,0-2.5.3-3.8.8s-2.2,1.3-3.2,2.2-1.6,1.9-2.1,3.2-.8,2.5-.8,3.8v73.2L17.6,248.3c-.8.8-1.6,1.8-2.1,2.9-.6,1.1-1,2.2-1.3,3.3s-.3,2.4-.2,3.7c0,1.3.3,2.4.8,3.5s1.1,2.1,1.9,3c.8,1,1.6,1.8,2.7,2.4,1,.6,2.1,1.3,3.2,1.6s2.4.5,3.5.5h58.9v119.5c0,1.8.2,3.5.5,5.3s.8,3.5,1.6,5.1c.6,1.6,1.6,3.2,2.5,4.8,1,1.4,2.1,2.9,3.3,4.1s2.7,2.4,4.1,3.3,3,1.9,4.8,2.5c1.6.6,3.3,1.3,5.1,1.6s3.5.5,5.3.5h50.9c2.4,2.4,4.8,4.8,7.5,6.8,2.5,2.2,5.3,4.3,8.1,6.2,2.9,1.9,5.7,3.7,8.6,5.3,3,1.6,6,3,9.1,4.5,3.2,1.3,6.4,2.5,9.5,3.5s6.5,1.9,9.9,2.5,6.7,1.1,10,1.4,6.7.5,10.2.5,6.8-.2,10.2-.5c3.3-.3,6.7-.8,10-1.4,3.3-.6,6.5-1.4,9.9-2.5,3.2-1,6.4-2.2,9.5-3.5,3.2-1.3,6.2-2.9,9.1-4.5,3-1.6,5.9-3.3,8.6-5.3,2.9-1.9,5.6-4,8.1-6.2s5.1-4.5,7.5-6.8h50.9c1.8,0,3.5-.2,5.3-.5s3.5-.8,5.1-1.6c1.6-.6,3.2-1.6,4.8-2.5,1.4-1,2.9-2.1,4.1-3.3,1.3-1.3,2.4-2.7,3.3-4.1s1.8-3,2.5-4.8c.6-1.6,1.3-3.3,1.6-5.1s.5-3.5.5-5.3v-119.6h58.9c1.3,0,2.4-.2,3.5-.5s2.2-.8,3.2-1.6,1.9-1.4,2.7-2.4,1.4-1.9,1.9-3,.8-2.2.8-3.5,0-2.4-.2-3.5-.6-2.2-1.3-3.3c-.6-1.1-1.3-2.1-2.1-2.9h-.6.1ZM235.6,423.8c-50.4,0-91.5-42.5-91.5-94.8s1.1-16.5,3.2-24.5c2.1-8.1,5.3-15.8,9.4-22.9l78.9-134.4,78.9,134.4c4.1,7.3,7.2,15,9.2,22.9,2.1,8.1,3.2,16.2,3,24.5.3,52.3-40.7,94.8-91.2,94.8h0Z"/>
  <path class="cls-1" d="M246.9,277.9l-31.5-51.7-31.5,51.7c-1.1,1.9-1.9,3.8-2.7,5.7-.8,2.1-1.3,4-1.6,6.2-.3,2.1-.6,4.1-.6,6.4s.2,4.3.5,6.4,1,4.1,1.6,6.2c.8,2.1,1.6,4,2.7,5.7,1.1,1.9,2.2,3.7,3.7,5.3s2.9,3.2,4.5,4.5c1.6,1.4,3.3,2.5,5.3,3.7,1.9,1.1,3.8,1.9,5.7,2.7,2.1.8,4,1.3,6.2,1.6,2.1.3,4.1.6,6.4.6s4.3-.2,6.4-.6c2.1-.3,4.1-1,6.2-1.6,2.1-.8,4-1.6,5.7-2.7,1.9-1.1,3.7-2.2,5.3-3.7,1.6-1.4,3.2-2.9,4.5-4.5,1.4-1.6,2.5-3.3,3.7-5.3,1.1-1.9,1.9-3.8,2.7-5.7.8-2.1,1.3-4,1.6-6.2.3-2.1.5-4.1.5-6.4s-.2-4.3-.6-6.4c-.3-2.1-1-4.1-1.6-6.2-.8-2.1-1.6-4-2.7-5.7h-.4Z"/>
  <path class="cls-1" d="M298.1,345.8l-18.8-30.9-19.1,30.9c-.6,1.1-1.1,2.2-1.6,3.5s-.8,2.4-1,3.7-.3,2.5-.3,3.8,0,2.5.3,3.8c.2,1.3.5,2.5,1,3.7.5,1.3,1,2.4,1.6,3.5s1.4,2.1,2.2,3.2c.8,1,1.8,1.9,2.7,2.7s2.1,1.6,3.2,2.2,2.2,1.1,3.5,1.6,2.4.8,3.7,1,2.5.3,3.8.3,2.5,0,3.8-.3c1.3-.2,2.5-.6,3.7-1,1.3-.5,2.4-1,3.5-1.6s2.1-1.4,3-2.2,1.9-1.8,2.7-2.7,1.6-2.1,2.2-3.2,1.1-2.2,1.6-3.5.8-2.4,1-3.7.3-2.5.3-3.8,0-2.5-.3-3.8c-.2-1.3-.6-2.5-1-3.7-.5-1.1-1-2.4-1.6-3.5h.3-.5,0Z"/>
</svg>